<svg xmlns="http://www.w3.org/2000/svg" width="192" height="61" viewBox="0 0 192 61"><path fill="#000" d="M96.52 24.933v18.584h-6.686V14.043h3.953l20.14 17.702V14.043h6.601v29.474h-2.985zM130.703 14.043l11.647 22.242 11.394-22.242h6.812l-15.347 29.559h-5.634l-15.935-29.56zM176.364 43.937c-5.34 0-8.83-1.177-13.917-3.994l2.102-4.709c4.835 2.312 8.283 3.658 11.227 3.658 3.657 0 8.955-1.094 8.955-4.373 0-2.649-4.246-3.279-9.376-3.784-6.181-.63-13.33-1.598-13.33-8.409 0-7.4 9.04-9.04 14.59-9.04 5.005 0 9.504 1.22 13.834 3.742l-1.934 4.288c-3.742-1.976-8.115-3.027-11.9-3.027-6.011 0-8.03 2.02-8.03 3.784 0 2.986 6.518 3.07 8.662 3.28 5.97.505 14.169 1.513 14.169 9.166 0 7.484-9.123 9.418-15.052 9.418z"/><path fill="#4cb9a6" d="M26.198 46.025H8.832l17.67-30.348L17.67.51 0 30.86l17.119 29.65h18l8.744-15.015-8.678-14.905z"/><path fill="#68abe8" d="M44.363 14.996H61.73L44.06 45.344l8.83 15.166 17.671-30.35L53.442.51h-18l-8.744 15.015 8.678 14.905z"/></svg>